<svg xmlns="http://www.w3.org/2000/svg" style="display:none">
  <defs>
    <symbol id="i-home" viewBox="0 0 24 24" fill="none" stroke="currentColor" stroke-width="2" stroke-linecap="round" stroke-linejoin="round"><path d="m3 10 9-7 9 7v10a2 2 0 0 1-2 2h-4v-7H9v7H5a2 2 0 0 1-2-2z"/></symbol>
    <symbol id="i-edit" viewBox="0 0 24 24" fill="none" stroke="currentColor" stroke-width="2" stroke-linecap="round" stroke-linejoin="round"><path d="M11 4H4a2 2 0 0 0-2 2v14a2 2 0 0 0 2 2h14a2 2 0 0 0 2-2v-7"/><path d="m18.5 2.5 3 3L12 15l-4 1 1-4z"/></symbol>
    <symbol id="i-megaphone" viewBox="0 0 24 24" fill="none" stroke="currentColor" stroke-width="2" stroke-linecap="round" stroke-linejoin="round"><path d="M3 11v2l4 .5V10.5z"/><path d="m7 10.5 12-5v13l-12-5z"/><path d="M11 14v3a2 2 0 0 0 4 0v-1.5"/></symbol>
    <symbol id="i-bookmark" viewBox="0 0 24 24" fill="none" stroke="currentColor" stroke-width="2" stroke-linecap="round" stroke-linejoin="round"><path d="M19 21V5a2 2 0 0 0-2-2H7a2 2 0 0 0-2 2v16l7-3z"/></symbol>
    <symbol id="i-chart" viewBox="0 0 24 24" fill="none" stroke="currentColor" stroke-width="2" stroke-linecap="round" stroke-linejoin="round"><path d="M3 3v18h18"/><rect x="7" y="12" width="3" height="6" rx="1"/><rect x="12" y="8" width="3" height="10" rx="1"/><rect x="17" y="5" width="3" height="13" rx="1"/></symbol>
    <symbol id="i-card" viewBox="0 0 24 24" fill="none" stroke="currentColor" stroke-width="2" stroke-linecap="round" stroke-linejoin="round"><rect x="2" y="5" width="20" height="14" rx="2"/><line x1="2" y1="10" x2="22" y2="10"/></symbol>
    <symbol id="i-users" viewBox="0 0 24 24" fill="none" stroke="currentColor" stroke-width="2" stroke-linecap="round" stroke-linejoin="round"><path d="M16 21v-2a4 4 0 0 0-4-4H6a4 4 0 0 0-4 4v2"/><circle cx="9" cy="7" r="4"/><path d="M22 21v-2a4 4 0 0 0-3-3.87"/><path d="M16 3.13a4 4 0 0 1 0 7.75"/></symbol>
    <symbol id="i-settings" viewBox="0 0 24 24" fill="none" stroke="currentColor" stroke-width="2" stroke-linecap="round" stroke-linejoin="round"><circle cx="12" cy="12" r="3"/><path d="M19 12.97a7.5 7.5 0 0 0 0-1.94l2-1.5-2-3.46-2.34.83a7.5 7.5 0 0 0-1.68-.97L14.5 3.5h-5l-.48 2.43a7.5 7.5 0 0 0-1.68.97L5 6.07 3 9.53l2 1.5a7.5 7.5 0 0 0 0 1.94l-2 1.5 2 3.46 2.34-.83a7.5 7.5 0 0 0 1.68.97L9.5 20.5h5l.48-2.43a7.5 7.5 0 0 0 1.68-.97l2.34.83 2-3.46z"/></symbol>
    <symbol id="i-zap" viewBox="0 0 24 24" fill="none" stroke="currentColor" stroke-width="2" stroke-linecap="round" stroke-linejoin="round"><polygon points="13 2 4 14 12 14 11 22 20 10 12 10 13 2"/></symbol>
    <symbol id="i-mail" viewBox="0 0 24 24" fill="none" stroke="currentColor" stroke-width="2" stroke-linecap="round" stroke-linejoin="round"><rect x="2" y="5" width="20" height="14" rx="2"/><polyline points="2 7 12 13 22 7"/></symbol>
    <symbol id="i-wallet" viewBox="0 0 24 24" fill="none" stroke="currentColor" stroke-width="2" stroke-linecap="round" stroke-linejoin="round"><path d="M3 7a2 2 0 0 1 2-2h14v4H5a2 2 0 0 1-2-2"/><path d="M3 7v11a2 2 0 0 0 2 2h15a1 1 0 0 0 1-1v-4"/><path d="M21 12v4h-4a2 2 0 0 1 0-4z"/></symbol>
    <symbol id="i-user" viewBox="0 0 24 24" fill="none" stroke="currentColor" stroke-width="2" stroke-linecap="round" stroke-linejoin="round"><circle cx="12" cy="8" r="4"/><path d="M4 21v-1a6 6 0 0 1 6-6h4a6 6 0 0 1 6 6v1"/></symbol>
    <symbol id="i-shield" viewBox="0 0 24 24" fill="none" stroke="currentColor" stroke-width="2" stroke-linecap="round" stroke-linejoin="round"><path d="M12 22s8-4 8-10V5l-8-3-8 3v7c0 6 8 10 8 10z"/><polyline points="9 12 11 14 15 10"/></symbol>
    <symbol id="i-search" viewBox="0 0 24 24" fill="none" stroke="currentColor" stroke-width="2" stroke-linecap="round" stroke-linejoin="round"><circle cx="11" cy="11" r="7"/><line x1="21" y1="21" x2="16.5" y2="16.5"/></symbol>
    <symbol id="i-bell" viewBox="0 0 24 24" fill="none" stroke="currentColor" stroke-width="2" stroke-linecap="round" stroke-linejoin="round"><path d="M6 8a6 6 0 0 1 12 0c0 7 3 9 3 9H3s3-2 3-9"/><path d="M10 21a2 2 0 0 0 4 0"/></symbol>
    <symbol id="i-play" viewBox="0 0 24 24" fill="currentColor"><polygon points="6 4 20 12 6 20 6 4"/></symbol>
    <symbol id="i-check" viewBox="0 0 24 24" fill="none" stroke="currentColor" stroke-width="3" stroke-linecap="round" stroke-linejoin="round"><polyline points="4 12 10 18 20 6"/></symbol>
    <symbol id="i-film" viewBox="0 0 24 24" fill="none" stroke="currentColor" stroke-width="2" stroke-linecap="round" stroke-linejoin="round"><rect x="3" y="3" width="18" height="18" rx="2"/><line x1="7" y1="3" x2="7" y2="21"/><line x1="17" y1="3" x2="17" y2="21"/><line x1="3" y1="12" x2="21" y2="12"/></symbol>
    <symbol id="i-globe" viewBox="0 0 24 24" fill="none" stroke="currentColor" stroke-width="2" stroke-linecap="round" stroke-linejoin="round"><circle cx="12" cy="12" r="9"/><path d="M3 12h18"/><path d="M12 3a14 14 0 0 1 0 18"/><path d="M12 3a14 14 0 0 0 0 18"/></symbol>
    <symbol id="i-heart" viewBox="0 0 24 24" fill="none" stroke="currentColor" stroke-width="2" stroke-linecap="round" stroke-linejoin="round"><path d="M20.84 4.6a5.5 5.5 0 0 0-7.78 0L12 5.67l-1.06-1.06a5.5 5.5 0 0 0-7.78 7.78L12 21.23l8.84-8.84a5.5 5.5 0 0 0 0-7.78z"/></symbol>
    <symbol id="i-instagram" viewBox="0 0 24 24" fill="none" stroke="currentColor" stroke-width="2" stroke-linecap="round" stroke-linejoin="round"><rect x="3" y="3" width="18" height="18" rx="5"/><circle cx="12" cy="12" r="4"/><circle cx="17.5" cy="6.5" r="1" fill="currentColor"/></symbol>
    <symbol id="i-tiktok" viewBox="0 0 24 24" fill="currentColor"><path d="M16 3v3.5a4.5 4.5 0 0 0 4.5 4.5V14a7.5 7.5 0 0 1-4.5-1.5V16a5.5 5.5 0 1 1-5.5-5.5v3a2.5 2.5 0 1 0 2.5 2.5V3z"/></symbol>
    <symbol id="i-youtube" viewBox="0 0 24 24" fill="none" stroke="currentColor" stroke-width="2" stroke-linecap="round" stroke-linejoin="round"><path d="M21 7.2a2.8 2.8 0 0 0-2-2C17 5 12 5 12 5s-5 0-7 .2a2.8 2.8 0 0 0-2 2A29 29 0 0 0 3 12a29 29 0 0 0 0 4.8 2.8 2.8 0 0 0 2 2c2 .2 7 .2 7 .2s5 0 7-.2a2.8 2.8 0 0 0 2-2A29 29 0 0 0 21 12a29 29 0 0 0 0-4.8z"/><polygon points="10 9 16 12 10 15" fill="currentColor"/></symbol>
    <symbol id="i-x" viewBox="0 0 24 24" fill="currentColor"><path d="M18.244 2H21l-6.51 7.444L22 22h-6.563l-5.14-6.72L4.4 22H1.642l6.96-7.95L1.5 2h6.7l4.65 6.139zm-2.298 18.4h1.534L7.07 3.46H5.42z"/></symbol>
    <symbol id="i-attach" viewBox="0 0 24 24" fill="none" stroke="currentColor" stroke-width="2" stroke-linecap="round" stroke-linejoin="round"><path d="m21 11-8.5 8.5a5 5 0 1 1-7-7L14 4a3.5 3.5 0 0 1 5 5l-8.5 8.5a2 2 0 1 1-3-3l7.5-7.5"/></symbol>
    <symbol id="i-send" viewBox="0 0 24 24" fill="none" stroke="currentColor" stroke-width="2" stroke-linecap="round" stroke-linejoin="round"><path d="m3 11 18-8-8 18-2-8z"/></symbol>
    <symbol id="i-calendar" viewBox="0 0 24 24" fill="none" stroke="currentColor" stroke-width="2" stroke-linecap="round" stroke-linejoin="round"><rect x="3" y="5" width="18" height="16" rx="2"/><line x1="3" y1="10" x2="21" y2="10"/><line x1="8" y1="3" x2="8" y2="7"/><line x1="16" y1="3" x2="16" y2="7"/></symbol>
    <symbol id="i-camera" viewBox="0 0 24 24" fill="none" stroke="currentColor" stroke-width="2" stroke-linecap="round" stroke-linejoin="round"><path d="M3 7h4l2-3h6l2 3h4a1 1 0 0 1 1 1v11a1 1 0 0 1-1 1H3a1 1 0 0 1-1-1V8a1 1 0 0 1 1-1z"/><circle cx="12" cy="13" r="4"/></symbol>
  </defs>
</svg>